<svg preserveAspectRatio="none" overflow="visible" style="display: block;" width="9.00002" height="6" viewBox="0 0 9.00002 6" fill="none" xmlns="http://www.w3.org/2000/svg">
<g id="elements">
<path id="Vector (Stroke)" fill-rule="evenodd" clip-rule="evenodd" d="M9.00002 3C9.00002 3.27614 8.77616 3.5 8.50002 3.5L0.500009 3.5C0.223866 3.5 8.54914e-06 3.27614 8.56121e-06 3C8.57328e-06 2.72386 0.223866 2.5 0.500009 2.5L8.50002 2.5C8.77616 2.5 9.00002 2.72386 9.00002 3Z" fill="#4669FB"/>
<path id="Union" d="M7.98609 3C7.93944 2.92262 7.84164 2.78356 7.7347 2.66253C7.52183 2.42161 7.22847 2.14642 6.92222 1.88053C6.61845 1.61679 6.31322 1.37182 6.08303 1.19219C5.9682 1.10258 5.77004 0.952882 5.70348 0.902603C5.48116 0.738842 5.43367 0.425867 5.59742 0.20353C5.76117 -0.0188192 6.07417 -0.0663203 6.29652 0.0974337L6.29838 0.0988351C6.37057 0.153361 6.57988 0.311455 6.69825 0.403835C6.93682 0.590008 7.25659 0.846516 7.57782 1.12542C7.89657 1.40217 8.22821 1.7108 8.48408 2.00039C8.61152 2.14461 8.73074 2.2959 8.8208 2.4453C8.9026 2.58098 9.00001 2.7784 9.00002 2.99998C9.00001 3.22157 8.9026 3.41902 8.8208 3.5547C8.73074 3.7041 8.61152 3.85539 8.48408 3.99961C8.22821 4.2892 7.89657 4.59783 7.57782 4.87458C7.25659 5.15348 6.93682 5.40999 6.69825 5.59617C6.57988 5.68855 6.3707 5.84654 6.29851 5.90106L6.29652 5.90257C6.07417 6.06632 5.76117 6.01882 5.59742 5.79647C5.43367 5.57413 5.48116 5.26116 5.70348 5.0974C5.77004 5.04712 5.9682 4.89742 6.08303 4.80781C6.31322 4.62818 6.61845 4.38321 6.92222 4.11947C7.22847 3.85358 7.52183 3.57839 7.7347 3.33747C7.84164 3.21644 7.93944 3.07738 7.98609 3Z" fill="#4669FB"/>
</g>
</svg>
