<svg preserveAspectRatio="none" overflow="visible" style="display: block;" width="13.3333" height="13.3333" viewBox="0 0 13.3333 13.3333" fill="none" xmlns="http://www.w3.org/2000/svg">
<path id="icon" fill-rule="evenodd" clip-rule="evenodd" d="M6 0C2.68629 0 0 2.68629 0 6C0 9.31371 2.68629 12 6 12C7.41668 12 8.71868 11.509 9.74512 10.6879L12.1953 13.1381C12.4556 13.3984 12.8777 13.3984 13.1381 13.1381C13.3984 12.8777 13.3984 12.4556 13.1381 12.1953L10.6879 9.74512C11.509 8.71868 12 7.41668 12 6C12 2.68629 9.31371 0 6 0ZM1.33333 6C1.33333 3.42267 3.42267 1.33333 6 1.33333C8.57733 1.33333 10.6667 3.42267 10.6667 6C10.6667 8.57733 8.57733 10.6667 6 10.6667C3.42267 10.6667 1.33333 8.57733 1.33333 6Z" fill="#5C5C5C"/>
</svg>
