<svg preserveAspectRatio="none" overflow="visible" style="display: block;" width="15.375" height="15.375" viewBox="0 0 15.375 15.375" fill="none" xmlns="http://www.w3.org/2000/svg">
<g id="elements">
<path id="Subtract" fill-rule="evenodd" clip-rule="evenodd" d="M7.73038 3.25691e-07H7.73039H7.7304C9.37342 -9.33983e-06 10.6639 -1.69448e-05 11.6715 0.135446C12.704 0.274261 13.5232 0.564537 14.1668 1.20819C14.8105 1.85183 15.1007 2.67103 15.2396 3.70352C15.375 4.71108 15.375 6.0016 15.375 7.64463V7.7304C15.375 9.37342 15.375 10.6639 15.2396 11.6715C15.1007 12.704 14.8105 13.5232 14.1668 14.1668C13.5232 14.8105 12.704 15.1007 11.6715 15.2396C10.6639 15.375 9.3734 15.375 7.73038 15.375H7.6446C6.00158 15.375 4.71108 15.375 3.70352 15.2396C2.67103 15.1007 1.85183 14.8105 1.20819 14.1668C0.564537 13.5232 0.274261 12.704 0.135446 11.6715C-1.69315e-05 10.6639 -9.33982e-06 9.37342 3.25691e-07 7.7304V7.73039V7.73038V7.64462V7.64461V7.64461C-9.33982e-06 6.00158 -1.69448e-05 4.71108 0.135446 3.70352C0.274261 2.67103 0.564537 1.85183 1.20819 1.20819C1.85183 0.564537 2.67103 0.274261 3.70352 0.135446C4.71108 -1.69316e-05 6.00158 -9.33983e-06 7.64461 3.25691e-07H7.64461H7.64462H7.73038ZM11.3457 4.70278C11.5444 5.0662 11.4109 5.52192 11.0475 5.72067C10.019 6.28314 9.05307 7.46064 8.31558 8.58992C7.95606 9.14044 7.66762 9.65299 7.46924 10.0278C7.37025 10.2148 7.29419 10.3665 7.24341 10.4704L7.16974 10.6245C7.05386 10.8777 6.80707 11.0462 6.52896 11.0615C6.25077 11.0769 5.987 10.9367 5.84398 10.6976C5.61095 10.308 5.24064 9.95238 4.89748 9.68106C4.73073 9.54923 4.58064 9.44529 4.47353 9.37513L4.31581 9.27649C3.9562 9.07121 3.83098 8.6133 4.03614 8.25358C4.24135 7.89377 4.69938 7.76844 5.05919 7.97365L5.29547 8.12037C5.43211 8.20988 5.61953 8.33974 5.82778 8.5044C5.98693 8.63023 6.16488 8.78152 6.34454 8.95584C6.53718 8.6098 6.77788 8.20125 7.05968 7.76974C7.82219 6.60214 8.95628 5.15465 10.3278 4.40461C10.6912 4.20587 11.1469 4.33936 11.3457 4.70278Z" fill="#1DAF61"/>
</g>
</svg>
